G04 #@! TF.GenerationSoftware,KiCad,Pcbnew,7.0.2*
G04 #@! TF.CreationDate,2023-05-21T20:01:26+03:00*
G04 #@! TF.ProjectId,DewController-V1.0,44657743-6f6e-4747-926f-6c6c65722d56,rev?*
G04 #@! TF.SameCoordinates,Original*
G04 #@! TF.FileFunction,Soldermask,Top*
G04 #@! TF.FilePolarity,Negative*
%FSLAX46Y46*%
G04 Gerber Fmt 4.6, Leading zero omitted, Abs format (unit mm)*
G04 Created by KiCad (PCBNEW 7.0.2) date 2023-05-21 20:01:26*
%MOMM*%
%LPD*%
G01*
G04 APERTURE LIST*
G04 Aperture macros list*
%AMRoundRect*
0 Rectangle with rounded corners*
0 $1 Rounding radius*
0 $2 $3 $4 $5 $6 $7 $8 $9 X,Y pos of 4 corners*
0 Add a 4 corners polygon primitive as box body*
4,1,4,$2,$3,$4,$5,$6,$7,$8,$9,$2,$3,0*
0 Add four circle primitives for the rounded corners*
1,1,$1+$1,$2,$3*
1,1,$1+$1,$4,$5*
1,1,$1+$1,$6,$7*
1,1,$1+$1,$8,$9*
0 Add four rect primitives between the rounded corners*
20,1,$1+$1,$2,$3,$4,$5,0*
20,1,$1+$1,$4,$5,$6,$7,0*
20,1,$1+$1,$6,$7,$8,$9,0*
20,1,$1+$1,$8,$9,$2,$3,0*%
G04 Aperture macros list end*
%ADD10RoundRect,0.150000X-0.587500X-0.150000X0.587500X-0.150000X0.587500X0.150000X-0.587500X0.150000X0*%
%ADD11RoundRect,0.150000X-0.512500X-0.150000X0.512500X-0.150000X0.512500X0.150000X-0.512500X0.150000X0*%
%ADD12RoundRect,0.150000X0.512500X0.150000X-0.512500X0.150000X-0.512500X-0.150000X0.512500X-0.150000X0*%
%ADD13RoundRect,0.250000X0.625000X-0.312500X0.625000X0.312500X-0.625000X0.312500X-0.625000X-0.312500X0*%
%ADD14RoundRect,0.250000X-0.625000X0.312500X-0.625000X-0.312500X0.625000X-0.312500X0.625000X0.312500X0*%
%ADD15R,1.700000X1.700000*%
%ADD16O,1.700000X1.700000*%
%ADD17RoundRect,0.250000X-0.250000X-0.475000X0.250000X-0.475000X0.250000X0.475000X-0.250000X0.475000X0*%
%ADD18R,1.750000X0.450000*%
%ADD19RoundRect,0.250000X0.650000X-1.000000X0.650000X1.000000X-0.650000X1.000000X-0.650000X-1.000000X0*%
%ADD20R,1.800000X1.800000*%
%ADD21C,1.800000*%
%ADD22R,1.600000X1.600000*%
%ADD23C,1.600000*%
%ADD24C,4.000000*%
%ADD25RoundRect,0.250000X0.312500X0.625000X-0.312500X0.625000X-0.312500X-0.625000X0.312500X-0.625000X0*%
%ADD26RoundRect,0.250000X-0.312500X-0.625000X0.312500X-0.625000X0.312500X0.625000X-0.312500X0.625000X0*%
%ADD27R,1.050000X1.500000*%
%ADD28O,1.050000X1.500000*%
%ADD29C,5.600000*%
%ADD30RoundRect,0.250000X0.250000X0.475000X-0.250000X0.475000X-0.250000X-0.475000X0.250000X-0.475000X0*%
%ADD31RoundRect,0.250000X-0.412500X-0.925000X0.412500X-0.925000X0.412500X0.925000X-0.412500X0.925000X0*%
%ADD32RoundRect,0.250000X-0.475000X0.250000X-0.475000X-0.250000X0.475000X-0.250000X0.475000X0.250000X0*%
%ADD33C,5.000000*%
%ADD34C,3.000000*%
%ADD35R,2.600000X2.600000*%
%ADD36C,2.600000*%
%ADD37RoundRect,0.218750X0.256250X-0.218750X0.256250X0.218750X-0.256250X0.218750X-0.256250X-0.218750X0*%
%ADD38R,1.500000X2.000000*%
%ADD39R,3.800000X2.000000*%
%ADD40RoundRect,0.250000X0.475000X-0.250000X0.475000X0.250000X-0.475000X0.250000X-0.475000X-0.250000X0*%
%ADD41O,1.600000X1.600000*%
%ADD42RoundRect,0.243750X0.243750X0.456250X-0.243750X0.456250X-0.243750X-0.456250X0.243750X-0.456250X0*%
%ADD43C,1.524000*%
%ADD44RoundRect,0.425000X-0.425000X-0.425000X0.425000X-0.425000X0.425000X0.425000X-0.425000X0.425000X0*%
%ADD45C,1.700000*%
%ADD46RoundRect,0.250000X0.412500X0.925000X-0.412500X0.925000X-0.412500X-0.925000X0.412500X-0.925000X0*%
%ADD47RoundRect,0.250000X-0.650000X1.000000X-0.650000X-1.000000X0.650000X-1.000000X0.650000X1.000000X0*%
G04 APERTURE END LIST*
D10*
X89565000Y-64791000D03*
X91440000Y-65741000D03*
X89565000Y-66691000D03*
X90716500Y-92498000D03*
X92591500Y-93448000D03*
X90716500Y-94398000D03*
D11*
X89165000Y-55889000D03*
X91440000Y-56839000D03*
X89165000Y-57789000D03*
X90435000Y-84140000D03*
X92710000Y-85090000D03*
X90435000Y-86040000D03*
D12*
X40640000Y-50800000D03*
X38365000Y-49850000D03*
X40640000Y-48900000D03*
X40640000Y-96520000D03*
X38365000Y-95570000D03*
X40640000Y-94620000D03*
D11*
X48525000Y-31810000D03*
X50800000Y-32760000D03*
X48525000Y-33710000D03*
D12*
X40640000Y-81910000D03*
X38365000Y-80960000D03*
X40640000Y-80010000D03*
D11*
X70115000Y-32070000D03*
X72390000Y-33020000D03*
X70115000Y-33970000D03*
D12*
X40640000Y-66040000D03*
X38365000Y-65090000D03*
X40640000Y-64140000D03*
D13*
X82042000Y-87063000D03*
X82042000Y-84138000D03*
D14*
X99081000Y-88365400D03*
X99081000Y-91290400D03*
D15*
X137160000Y-106680000D03*
D16*
X137160000Y-104140000D03*
D13*
X80899000Y-59373000D03*
X80899000Y-56448000D03*
X64770000Y-31750000D03*
X64770000Y-34675000D03*
D14*
X97790000Y-59566500D03*
X97790000Y-62491500D03*
D17*
X41403000Y-111760000D03*
X43303000Y-111760000D03*
D18*
X55790200Y-116589400D03*
X55790200Y-115939400D03*
X55790200Y-115289400D03*
X55790200Y-114639400D03*
X55790200Y-113989400D03*
X55790200Y-113339400D03*
X55790200Y-112689400D03*
X55790200Y-112039400D03*
X55790200Y-111389400D03*
X55790200Y-110739400D03*
X55790200Y-110089400D03*
X55790200Y-109439400D03*
X55790200Y-108789400D03*
X55790200Y-108139400D03*
X48590200Y-108139400D03*
X48590200Y-108789400D03*
X48590200Y-109439400D03*
X48590200Y-110089400D03*
X48590200Y-110739400D03*
X48590200Y-111389400D03*
X48590200Y-112039400D03*
X48590200Y-112689400D03*
X48590200Y-113339400D03*
X48590200Y-113989400D03*
X48590200Y-114639400D03*
X48590200Y-115289400D03*
X48590200Y-115939400D03*
X48590200Y-116589400D03*
D19*
X31750000Y-97347000D03*
X31750000Y-93347000D03*
D20*
X133223000Y-114935000D03*
D21*
X130683000Y-114935000D03*
D22*
X24240000Y-106490000D03*
D23*
X24240000Y-103990000D03*
X22240000Y-103990000D03*
X22240000Y-106490000D03*
D24*
X19380000Y-111240000D03*
X19380000Y-99240000D03*
D13*
X43180000Y-34421000D03*
X43180000Y-31496000D03*
D25*
X37022500Y-73660000D03*
X34097500Y-73660000D03*
D19*
X81026000Y-67310000D03*
X81026000Y-63310000D03*
D26*
X58035000Y-121920000D03*
X60960000Y-121920000D03*
D20*
X136637000Y-38320000D03*
D21*
X136637000Y-40860000D03*
D25*
X118165000Y-43180000D03*
X115240000Y-43180000D03*
D27*
X93980000Y-74930000D03*
D28*
X95250000Y-74930000D03*
X96520000Y-74930000D03*
D26*
X40255000Y-73660000D03*
X43180000Y-73660000D03*
D25*
X74882100Y-39480000D03*
X71957100Y-39480000D03*
D29*
X35240000Y-35240000D03*
D30*
X43303000Y-107950000D03*
X41403000Y-107950000D03*
D24*
X139730000Y-23440000D03*
X114730000Y-23440000D03*
D22*
X132770000Y-23740000D03*
D23*
X130000000Y-23740000D03*
X127230000Y-23740000D03*
X124460000Y-23740000D03*
X121690000Y-23740000D03*
X131385000Y-20900000D03*
X128615000Y-20900000D03*
X125845000Y-20900000D03*
X123075000Y-20900000D03*
D31*
X42645000Y-122150000D03*
X45720000Y-122150000D03*
D20*
X20240000Y-54240000D03*
D21*
X20240000Y-51700000D03*
D14*
X63500000Y-113915000D03*
X63500000Y-116840000D03*
D19*
X31344000Y-66146000D03*
X31344000Y-62146000D03*
D32*
X99060000Y-95443000D03*
X99060000Y-97343000D03*
D30*
X43303000Y-104140000D03*
X41403000Y-104140000D03*
D26*
X85024500Y-49467000D03*
X87949500Y-49467000D03*
D29*
X125240000Y-105240000D03*
D19*
X81534000Y-95250000D03*
X81534000Y-91250000D03*
D33*
X52320000Y-24130000D03*
D34*
X47240000Y-24130000D03*
D33*
X42160000Y-24130000D03*
X47240000Y-19050000D03*
D26*
X85086000Y-45403000D03*
X88011000Y-45403000D03*
D30*
X117663000Y-32893000D03*
X115763000Y-32893000D03*
D35*
X132304000Y-66294000D03*
D36*
X132304000Y-61214000D03*
X132304000Y-56134000D03*
X132304000Y-51054000D03*
D30*
X43180000Y-115570000D03*
X41280000Y-115570000D03*
D37*
X50216000Y-102870000D03*
X50216000Y-101295000D03*
D26*
X112327500Y-50800000D03*
X115252500Y-50800000D03*
D14*
X46990000Y-47595000D03*
X46990000Y-50520000D03*
D33*
X29320000Y-24130000D03*
D34*
X24240000Y-24130000D03*
D33*
X19160000Y-24130000D03*
X24240000Y-19050000D03*
D20*
X57240000Y-20240000D03*
D21*
X59780000Y-20240000D03*
D38*
X116600000Y-62133000D03*
X114300000Y-62133000D03*
X112000000Y-62133000D03*
D39*
X114300000Y-68433000D03*
D33*
X75320000Y-24130000D03*
D34*
X70240000Y-24130000D03*
D33*
X65160000Y-24130000D03*
X70240000Y-19050000D03*
D27*
X93980000Y-48260000D03*
D28*
X95250000Y-48260000D03*
X96520000Y-48260000D03*
D26*
X34159000Y-43180000D03*
X37084000Y-43180000D03*
D14*
X97790000Y-53851500D03*
X97790000Y-56776500D03*
D33*
X24130000Y-59160000D03*
D34*
X24130000Y-64240000D03*
D33*
X24130000Y-69320000D03*
X19050000Y-64240000D03*
D26*
X40255000Y-88900000D03*
X43180000Y-88900000D03*
D25*
X68786100Y-39480000D03*
X65861100Y-39480000D03*
D40*
X106680000Y-58154000D03*
X106680000Y-56254000D03*
D26*
X86106000Y-74740000D03*
X89031000Y-74740000D03*
D35*
X99949000Y-108097000D03*
D36*
X105029000Y-108097000D03*
D20*
X20193000Y-31501000D03*
D21*
X20193000Y-28961000D03*
D22*
X106680000Y-87630000D03*
D41*
X109220000Y-87630000D03*
X111760000Y-87630000D03*
X114300000Y-87630000D03*
X114300000Y-80010000D03*
X111760000Y-80010000D03*
X109220000Y-80010000D03*
X106680000Y-80010000D03*
D19*
X31750000Y-51627000D03*
X31750000Y-47627000D03*
D42*
X53309500Y-121920000D03*
X51434500Y-121920000D03*
D43*
X88080000Y-21890000D03*
X88080000Y-24430000D03*
X88080000Y-26970000D03*
X88080000Y-29510000D03*
X88080000Y-32050000D03*
X88080000Y-34590000D03*
X108400000Y-34590000D03*
X108400000Y-32050000D03*
X108400000Y-29510000D03*
X108400000Y-26970000D03*
X108400000Y-24430000D03*
X108400000Y-21890000D03*
D40*
X116840000Y-74930000D03*
X116840000Y-73030000D03*
D29*
X35240000Y-105240000D03*
D26*
X40255000Y-58420000D03*
X43180000Y-58420000D03*
X40255000Y-43180000D03*
X43180000Y-43180000D03*
X86106000Y-78550000D03*
X89031000Y-78550000D03*
D37*
X54280000Y-102870000D03*
X54280000Y-101295000D03*
D14*
X46990000Y-93315000D03*
X46990000Y-96240000D03*
D44*
X70104000Y-95250000D03*
D45*
X70104000Y-92710000D03*
X70104000Y-90170000D03*
X70104000Y-87630000D03*
X70104000Y-85090000D03*
X70104000Y-82550000D03*
X70104000Y-80010000D03*
X70104000Y-77470000D03*
X70104000Y-74930000D03*
X70104000Y-72390000D03*
X70104000Y-69850000D03*
X70104000Y-67310000D03*
X70104000Y-64770000D03*
X70104000Y-62230000D03*
X70104000Y-59690000D03*
X70104000Y-57150000D03*
X70104000Y-54610000D03*
X70104000Y-52070000D03*
X70104000Y-49530000D03*
X70104000Y-46990000D03*
X54864000Y-46990000D03*
X54864000Y-49530000D03*
X54864000Y-52070000D03*
X54864000Y-54610000D03*
X54864000Y-57150000D03*
X54864000Y-59690000D03*
X54864000Y-62230000D03*
X54864000Y-64770000D03*
X54864000Y-67310000D03*
X54864000Y-69850000D03*
X54864000Y-72390000D03*
X54864000Y-74930000D03*
X54864000Y-77470000D03*
X54864000Y-80010000D03*
X54864000Y-82550000D03*
X54864000Y-85090000D03*
X54864000Y-87630000D03*
X54864000Y-90170000D03*
X54864000Y-92710000D03*
X54864000Y-95250000D03*
D43*
X66294000Y-50800000D03*
X63754000Y-50800000D03*
X61214000Y-50800000D03*
X58674000Y-50800000D03*
D13*
X82042000Y-80967000D03*
X82042000Y-78042000D03*
D32*
X97790000Y-66680000D03*
X97790000Y-68580000D03*
D29*
X125240000Y-36240000D03*
D14*
X99081000Y-81822900D03*
X99081000Y-84747900D03*
X46990000Y-78075000D03*
X46990000Y-81000000D03*
D25*
X138165000Y-33240000D03*
X135240000Y-33240000D03*
D26*
X34036000Y-88900000D03*
X36961000Y-88900000D03*
D33*
X24130000Y-82160000D03*
D34*
X24130000Y-87240000D03*
D33*
X24130000Y-92320000D03*
X19050000Y-87240000D03*
D31*
X112495000Y-57150000D03*
X115570000Y-57150000D03*
D25*
X47450100Y-39226000D03*
X44525100Y-39226000D03*
D20*
X34240000Y-20240000D03*
D21*
X36780000Y-20240000D03*
D20*
X104390000Y-48011000D03*
D21*
X104390000Y-45471000D03*
D25*
X53546100Y-39226000D03*
X50621100Y-39226000D03*
D35*
X78994000Y-108097000D03*
D36*
X84074000Y-108097000D03*
X89154000Y-108097000D03*
D26*
X33651000Y-58420000D03*
X36576000Y-58420000D03*
D19*
X104140000Y-66770000D03*
X104140000Y-62770000D03*
D33*
X24130000Y-36160000D03*
D34*
X24130000Y-41240000D03*
D33*
X24130000Y-46320000D03*
X19050000Y-41240000D03*
D14*
X63500000Y-108204000D03*
X63500000Y-111129000D03*
D13*
X80899000Y-53662000D03*
X80899000Y-50737000D03*
D46*
X112092500Y-73845000D03*
X109017500Y-73845000D03*
D47*
X57912000Y-31020000D03*
X57912000Y-35020000D03*
D14*
X46990000Y-62835000D03*
X46990000Y-65760000D03*
D20*
X80240000Y-20240000D03*
D21*
X82780000Y-20240000D03*
D47*
X79248000Y-31274000D03*
X79248000Y-35274000D03*
D19*
X30734000Y-81537500D03*
X30734000Y-77537500D03*
D15*
X118034000Y-37938000D03*
D16*
X115494000Y-37938000D03*
D20*
X123571000Y-114935000D03*
D21*
X121031000Y-114935000D03*
D15*
X107965000Y-95885000D03*
D16*
X110505000Y-95885000D03*
X113045000Y-95885000D03*
D35*
X132050000Y-91440000D03*
D36*
X132050000Y-86360000D03*
X132050000Y-81280000D03*
X132050000Y-76200000D03*
D20*
X20240000Y-77240000D03*
D21*
X20240000Y-74700000D03*
M02*
