M48
; DRILL file {KiCad 7.0.2} date Sun May 21 20:01:29 2023
; FORMAT={-:-/ absolute / metric / decimal}
; #@! TF.CreationDate,2023-05-21T20:01:29+03:00
; #@! TF.GenerationSoftware,Kicad,Pcbnew,7.0.2
; #@! TF.FileFunction,Plated,1,2,PTH
FMAT,2
METRIC
; #@! TA.AperFunction,Plated,PTH,ViaDrill
T1C0.400
; #@! TA.AperFunction,Plated,PTH,ViaDrill
T2C0.500
; #@! TA.AperFunction,Plated,PTH,ComponentDrill
T3C0.750
; #@! TA.AperFunction,Plated,PTH,ComponentDrill
T4C0.762
; #@! TA.AperFunction,Plated,PTH,ComponentDrill
T5C0.800
; #@! TA.AperFunction,Plated,PTH,ComponentDrill
T6C0.900
; #@! TA.AperFunction,Plated,PTH,ComponentDrill
T7C0.950
; #@! TA.AperFunction,Plated,PTH,ComponentDrill
T8C1.000
; #@! TA.AperFunction,Plated,PTH,ComponentDrill
T9C1.300
; #@! TA.AperFunction,Plated,PTH,ComponentDrill
T10C1.500
; #@! TA.AperFunction,Plated,PTH,ComponentDrill
T11C2.300
; #@! TA.AperFunction,Plated,PTH,ComponentDrill
T12C2.500
; #@! TA.AperFunction,Plated,PTH,ComponentDrill
T13C3.200
%
G90
G05
T1
X33.124Y-59.897
X42.926Y-48.514
X45.085Y-110.871
X45.212Y-44.958
X45.466Y-106.299
X45.847Y-54.991
X45.847Y-114.554
X46.101Y-29.083
X51.562Y-113.665
X58.059Y-113.986
X59.436Y-112.649
X59.944Y-59.01
X64.881Y-45.079
X68.601Y-70.505
X77.216Y-78.613
X78.105Y-39.878
X82.407Y-50.008
X83.693Y-70.993
X84.074Y-51.689
X84.365Y-83.648
X87.859Y-81.168
X89.154Y-59.69
X91.03Y-102.65
X91.313Y-88.9
X92.645Y-77.836
X96.012Y-39.878
X96.023Y-91.886
X97.17Y-64.617
X99.279Y-56.309
X99.796Y-55.03
X101.6Y-65.151
X102.108Y-57.785
X104.648Y-94.996
X116.059Y-96.294
X118.745Y-49.657
X118.999Y-59.436
T2
X96.023Y-81.435
X99.091Y-86.953
X99.182Y-60.646
X105.105Y-64.77
X106.573Y-59.638
T3
X93.98Y-48.26
X93.98Y-74.93
X95.25Y-48.26
X95.25Y-74.93
X96.52Y-48.26
X96.52Y-74.93
T4
X58.674Y-50.8
X61.214Y-50.8
X63.754Y-50.8
X66.294Y-50.8
X88.08Y-21.89
X88.08Y-24.43
X88.08Y-26.97
X88.08Y-29.51
X88.08Y-32.05
X88.08Y-34.59
X108.4Y-21.89
X108.4Y-24.43
X108.4Y-26.97
X108.4Y-29.51
X108.4Y-32.05
X108.4Y-34.59
T5
X106.68Y-80.01
X106.68Y-87.63
X109.22Y-80.01
X109.22Y-87.63
X111.76Y-80.01
X111.76Y-87.63
X114.3Y-80.01
X114.3Y-87.63
T6
X20.193Y-28.961
X20.193Y-31.501
X20.24Y-51.7
X20.24Y-54.24
X20.24Y-74.7
X20.24Y-77.24
X34.24Y-20.24
X36.78Y-20.24
X57.24Y-20.24
X59.78Y-20.24
X80.24Y-20.24
X82.78Y-20.24
X104.39Y-45.471
X104.39Y-48.011
X121.031Y-114.935
X123.571Y-114.935
X130.683Y-114.935
X133.223Y-114.935
X136.637Y-38.32
X136.637Y-40.86
T7
X22.24Y-103.99
X22.24Y-106.49
X24.24Y-103.99
X24.24Y-106.49
T8
X54.864Y-46.99
X54.864Y-49.53
X54.864Y-52.07
X54.864Y-54.61
X54.864Y-57.15
X54.864Y-59.69
X54.864Y-62.23
X54.864Y-64.77
X54.864Y-67.31
X54.864Y-69.85
X54.864Y-72.39
X54.864Y-74.93
X54.864Y-77.47
X54.864Y-80.01
X54.864Y-82.55
X54.864Y-85.09
X54.864Y-87.63
X54.864Y-90.17
X54.864Y-92.71
X54.864Y-95.25
X70.104Y-46.99
X70.104Y-49.53
X70.104Y-52.07
X70.104Y-54.61
X70.104Y-57.15
X70.104Y-59.69
X70.104Y-62.23
X70.104Y-64.77
X70.104Y-67.31
X70.104Y-69.85
X70.104Y-72.39
X70.104Y-74.93
X70.104Y-77.47
X70.104Y-80.01
X70.104Y-82.55
X70.104Y-85.09
X70.104Y-87.63
X70.104Y-90.17
X70.104Y-92.71
X70.104Y-95.25
X107.965Y-95.885
X110.505Y-95.885
X113.045Y-95.885
X115.494Y-37.938
X118.034Y-37.938
X121.69Y-23.74
X123.075Y-20.9
X124.46Y-23.74
X125.845Y-20.9
X127.23Y-23.74
X128.615Y-20.9
X130.0Y-23.74
X131.385Y-20.9
X132.77Y-23.74
X137.16Y-104.14
X137.16Y-106.68
T9
X78.994Y-108.097
X84.074Y-108.097
X89.154Y-108.097
X99.949Y-108.097
X105.029Y-108.097
X132.05Y-76.2
X132.05Y-81.28
X132.05Y-86.36
X132.05Y-91.44
X132.304Y-51.054
X132.304Y-56.134
X132.304Y-61.214
X132.304Y-66.294
T10
X24.13Y-41.24
X24.13Y-64.24
X24.13Y-87.24
X24.24Y-24.13
X47.24Y-24.13
X70.24Y-24.13
T11
X19.38Y-99.24
X19.38Y-111.24
T12
X19.05Y-41.24
X19.05Y-64.24
X19.05Y-87.24
X19.16Y-24.13
X24.13Y-36.16
X24.13Y-46.32
X24.13Y-59.16
X24.13Y-69.32
X24.13Y-82.16
X24.13Y-92.32
X24.24Y-19.05
X29.32Y-24.13
X42.16Y-24.13
X47.24Y-19.05
X52.32Y-24.13
X65.16Y-24.13
X70.24Y-19.05
X75.32Y-24.13
T13
X35.24Y-35.24
X35.24Y-105.24
X114.73Y-23.44
X125.24Y-36.24
X125.24Y-105.24
X139.73Y-23.44
T0
M30
